<?xml version="1.0" encoding="UTF-8"?><svg id="Capa_1" xmlns="http://www.w3.org/2000/svg" viewBox="0 0 517.25 276.07"><defs><style>.cls-1{fill:#ccd0d6;fill-rule:evenodd;stroke-width:0px;}</style></defs><path class="cls-1" d="M225.7,47.57c-.29-12.84-10.7-25.39,1.57-35.37,13.69-11.12,22.96,0,31.09,5.7,7.7-5.28,11.12-13.41,25.67-8.7,18.97,5.99,19.11,38.22-29.38,61.33l-.43,24.39c-38.93,2.99-42.07,24.53-59.76,47.49-25.53,33.09-128.36,79.15-172.43,99.69-8.41,3.99-30.38,19.11-18.68,31.38,3.85,3.85,50.63,1.43,59.04,1.43h422.86c8.98,0,22.82,3.42,28.1-1.43,20.11-19.68-43.64-42.79-54.05-47.63-34.94-16.54-115.24-55.62-136.2-82.29-18.4-23.53-21.54-45.5-60.76-48.63v-18.68c16.26-11.41,28.67-17.4,37.08-33.23,10.27-19.54,1.43-40.5-18.83-42.5-16.54-1.71-15.69,7.7-26.38,3.85-10.13-3.57-15.4-7.13-27.53-1.14-13.41,6.56-16.97,21.68-11.41,35.8,2.85,7.27,3.14,7.7,10.41,8.7h0v-.14ZM36.02,265.35l445.11.29c-11.41-8.84-40.79-22.39-54.62-29.66-26.38-13.98-160.3-87.85-168.15-87.85-8.56,0-95.84,49.63-111.67,57.76l-110.67,59.47h0Z"/></svg>